<svg height="512pt" viewBox="-53 0 512 512.00041" width="512pt" xmlns="http://www.w3.org/2000/svg"><path d="m295.523438 216.023438-2.839844-72.660157c-.402344-10.246093-8.835938-18.28125-19-18.28125-.25 0-.503906.003907-.757813.015625-10.5.410156-18.675781 9.253906-18.265625 19.753906l1.832032 46.824219-42.101563-13.230469c-9.175781-2.882812-18.726563-4.355468-28.339844-4.371093-20.898437-.03125-57.222656-.039063-59.652343.269531l-66.472657-20.46875 24.40625-18.648438c8.199219-6.261718 10.308594-17.972656 4.34375-26.386718-6.269531-8.835938-18.550781-10.648438-27.082031-4.128906l-54.125 41.355468c-12.269531 9.371094-8.820312 28.753906 5.949219 33.300782l87.742187 27.019531v144.890625h109.335938v-132.578125l61.070312 16.441406c12.34375 3.324219 24.460938-6.269531 23.957032-19.117187zm0 0" fill="#f5a990"/><path d="m229.082031 507.324219-87.410156-64.769531c-8.8125-6.53125-12.015625-18.242188-7.753906-28.351563l30.839843-73.117187c5.105469-12.101563 19.050782-17.773438 31.15625-12.671876 12.101563 5.105469 17.773438 19.054688 12.671876 31.15625l-23.578126 55.898438 72.394532 53.640625c10.554687 7.820313 12.769531 22.710937 4.949218 33.265625-7.84375 10.585938-22.746093 12.746094-33.269531 4.949219zm0 0" fill="#414b82"/><path d="m37.542969 511.78125c-13.015625-1.773438-22.128907-13.757812-20.359375-26.773438l15.632812-114.84375c.992188-7.285156 5.296875-13.703124 11.664063-17.382812l77.886719-45.03125c11.371093-6.574219 25.921874-2.6875 32.496093 8.683594s2.683594 25.917968-8.6875 32.496094l-67.800781 39.195312-14.0625 103.296875c-1.773438 13.042969-13.789062 22.128906-26.769531 20.359375zm0 0" fill="#5f6e9b"/><path d="m214.390625 178.445312c-9.171875-2.882812-18.722656-4.359374-28.339844-4.371093-3.109375-.003907-6.5625-.007813-10.191406-.011719.386719 11.332031-10.144531 20.949219-21.140625 20.949219-11.746094 0-20.46875-9.519531-21.117188-20.84375-3.953124.042969-6.605468.097656-7.203124.175781l-48.039063-14.792969-9.550781 36.871094 32.351562 9.964844v107.160156c0 20.835937 16.894532 37.730469 37.734375 37.730469h71.601563v-132.578125l34.839844 9.378906 5.617187-38.144531zm0 0" fill="#64afff"/><path d="m329.269531 77.875c-19.683593 0-35.636719-15.957031-35.636719-35.636719v-41.238281h71.269532v41.238281c.003906 19.679688-15.953125 35.636719-35.632813 35.636719zm0 0" fill="#fa503c"/><path d="m366.710938 25.503906h-74.886719c-6.136719 0-11.109375-4.972656-11.109375-11.109375v-14.394531h97.105468v14.394531c0 6.136719-4.972656 11.109375-11.109374 11.109375zm0 0" fill="#a5c8cd"/><path d="m189.867188 144.109375c0 23.625-19.152344 42.777344-42.78125 42.777344-23.625 0-42.777344-19.152344-42.777344-42.777344 0-23.628906 19.152344-42.78125 42.777344-42.78125 23.628906 0 42.78125 19.152344 42.78125 42.78125zm0 0" fill="#ff9f80"/><g fill="#ff3c3c"><path d="m329.269531 126.867188c-4.140625 0-7.492187-3.355469-7.492187-7.492188v-25.34375c0-4.136719 3.351562-7.492188 7.492187-7.492188 4.136719 0 7.492188 3.355469 7.492188 7.492188v25.34375c0 4.136719-3.355469 7.492188-7.492188 7.492188zm0 0"/><path d="m284.003906 65.25h-25.34375c-4.136718 0-7.492187-3.355469-7.492187-7.492188 0-4.136718 3.355469-7.492187 7.492187-7.492187h25.34375c4.136719 0 7.492188 3.355469 7.492188 7.492187 0 4.136719-3.355469 7.492188-7.492188 7.492188zm0 0"/><path d="m398.875 65.25h-25.339844c-4.140625 0-7.492187-3.355469-7.492187-7.492188 0-4.136718 3.351562-7.492187 7.492187-7.492187h25.339844c4.140625 0 7.492188 3.355469 7.492188 7.492187 0 4.136719-3.351563 7.492188-7.492188 7.492188zm0 0"/><path d="m372.839844 108.820312c-1.917969 0-3.835938-.730468-5.300782-2.195312l-17.917968-17.921875c-2.925782-2.925781-2.925782-7.667969 0-10.59375 2.925781-2.925781 7.667968-2.925781 10.59375 0l17.921875 17.921875c2.925781 2.925781 2.925781 7.667969 0 10.59375-1.464844 1.460938-3.382813 2.195312-5.296875 2.195312zm0 0"/><path d="m285.699219 108.820312c-1.917969 0-3.835938-.730468-5.300781-2.195312-2.925782-2.925781-2.925782-7.667969 0-10.59375l17.921874-17.921875c2.925782-2.925781 7.667969-2.925781 10.59375 0 2.925782 2.925781 2.925782 7.671875 0 10.59375l-17.917968 17.921875c-1.464844 1.460938-3.382813 2.195312-5.296875 2.195312zm0 0"/></g></svg>