<svg id="Capa_1" enable-background="new 0 0 512 512" height="512" viewBox="0 0 512 512" width="512" xmlns="http://www.w3.org/2000/svg"><g><g><g><path d="m277.867 394.363v-81.469h-43.756v81.469c0 3.807-3.086 6.894-6.894 6.894h-47.145c-5.646 0-10.222 4.577-10.222 10.222v23.311c0 5.646 4.577 10.222 10.222 10.222h151.833c5.646 0 10.222-4.577 10.222-10.222v-23.311c0-5.645-4.577-10.222-10.222-10.222h-47.145c-3.807 0-6.893-3.087-6.893-6.894z" fill="#d4cfd5"/></g></g><g><g><path d="m331.905 401.256h-30c5.646 0 10.222 4.577 10.222 10.222v23.311c0 5.646-4.577 10.222-10.222 10.222h30c5.646 0 10.222-4.577 10.222-10.222v-23.311c0-5.645-4.576-10.222-10.222-10.222z" fill="#b1abb4"/></g></g><g><g><path d="m475.826 447.517h-34.714c-3.88 0-7.026-3.146-7.026-7.026v-34.714c0-3.88 3.146-7.026 7.026-7.026h34.714c3.88 0 7.026 3.146 7.026 7.026v34.714c0 3.881-3.146 7.026-7.026 7.026z" fill="#ffe07d"/></g></g><g><g><path d="m36.326 447.517h34.714c3.88 0 7.026-3.146 7.026-7.026v-34.714c0-3.88-3.146-7.026-7.026-7.026h-34.714c-3.88 0-7.026 3.146-7.026 7.026v34.714c0 3.881 3.146 7.026 7.026 7.026z" fill="#ffe07d"/></g></g><g><g><path d="m493.213 234.968h-474.426c-6.234 0-11.287-5.053-11.287-11.287v-147.911c0-6.233 5.053-11.287 11.287-11.287h474.427c6.234 0 11.287 5.053 11.287 11.287v147.912c-.001 6.233-5.054 11.286-11.288 11.286z" fill="#c8c3ca"/></g></g><g><g><path d="m493.213 64.483h-30c6.234 0 11.287 5.053 11.287 11.287v147.912c0 6.233-5.053 11.287-11.287 11.287h30c6.233 0 11.287-5.053 11.287-11.287v-147.912c0-6.234-5.053-11.287-11.287-11.287z" fill="#b1abb4"/></g></g><g><g><path d="m94.25 135.797v-24.139h-36.427v24.139h-15.432v51.996h67.291v-51.996z" fill="#95d6a4"/></g></g><g><g><path d="m197.876 135.797v-24.139h-36.426v24.139h-15.433v51.996h67.292v-51.996z" fill="#95d6a4"/></g></g><g><g><path d="m301.503 135.797v-24.139h-36.427v24.139h-15.432v51.996h67.291v-51.996z" fill="#95d6a4"/></g></g><g><g><path d="m405.129 135.797v-24.139h-36.427v24.139h-15.432v51.996h67.291v-51.996z" fill="#95d6a4"/></g></g><g><path d="m493.213 56.983h-103.604c-4.142 0-7.5 3.358-7.5 7.5s3.358 7.5 7.5 7.5h103.604c2.088 0 3.787 1.699 3.787 3.787v22.456h-19.117c-4.142 0-7.5 3.358-7.5 7.5s3.358 7.5 7.5 7.5h19.117v14.333h-19.117c-4.142 0-7.5 3.358-7.5 7.5s3.358 7.5 7.5 7.5h19.117v14.333h-19.117c-4.142 0-7.5 3.358-7.5 7.5s3.358 7.5 7.5 7.5h19.117v14.333h-19.117c-4.142 0-7.5 3.358-7.5 7.5s3.358 7.5 7.5 7.5h19.117v22.456c0 2.088-1.699 3.787-3.787 3.787h-388.076c-4.142 0-7.5 3.358-7.5 7.5s3.358 7.5 7.5 7.5h143.352v62.925h-14.378c-4.142 0-7.5 3.358-7.5 7.5v80.863h-46.538c-9.772 0-17.722 7.95-17.722 17.722v4.156h-76.785v-9.857c0-8.01-6.516-14.526-14.526-14.526h-34.714c-8.01 0-14.526 6.516-14.526 14.526v34.714c0 8.01 6.516 14.526 14.526 14.526h34.714c8.01 0 14.526-6.516 14.526-14.526v-9.857h76.784v4.156c0 9.772 7.95 17.722 17.722 17.722h151.832c9.772 0 17.722-7.95 17.722-17.722v-4.156h76.958v9.857c0 8.01 6.517 14.526 14.526 14.526h34.714c8.01 0 14.526-6.516 14.526-14.526v-34.714c0-8.01-6.516-14.526-14.526-14.526h-34.714c-8.01 0-14.526 6.516-14.526 14.526v9.857h-76.958v-4.156c0-9.772-7.95-17.722-17.722-17.722h-46.538v-80.863c0-4.142-3.358-7.5-7.5-7.5h-14.378v-62.925h229.724c10.359 0 18.787-8.428 18.787-18.787v-147.911c.001-10.359-8.427-18.787-18.786-18.787zm-422.647 383.034h-33.766v-33.766h33.766zm371.019-33.766h33.766v33.766h-33.766zm-156.825 2.505h47.145c1.501 0 2.722 1.221 2.722 2.722v23.311c0 1.501-1.221 2.722-2.722 2.722h-151.833c-1.501 0-2.722-1.221-2.722-2.722v-23.311c0-1.501 1.221-2.722 2.722-2.722h47.145c7.936 0 14.393-6.457 14.393-14.394v-73.969h28.756v73.969c.001 7.937 6.458 14.394 14.394 14.394z"/><path d="m82.637 234.968c0-4.142-3.358-7.5-7.5-7.5h-56.35c-2.088 0-3.787-1.699-3.787-3.787v-147.911c0-2.088 1.699-3.787 3.787-3.787h340.822c4.142 0 7.5-3.358 7.5-7.5s-3.358-7.5-7.5-7.5h-340.822c-10.359 0-18.787 8.428-18.787 18.787v147.912c0 10.359 8.428 18.787 18.787 18.787h56.351c4.141-.001 7.499-3.359 7.499-7.501z"/><path d="m94.25 104.158h-36.427c-4.142 0-7.5 3.358-7.5 7.5v16.639h-7.932c-4.142 0-7.5 3.358-7.5 7.5v51.997c0 4.142 3.358 7.5 7.5 7.5h67.291c4.142 0 7.5-3.358 7.5-7.5v-51.997c0-4.142-3.358-7.5-7.5-7.5h-7.932v-16.639c0-4.142-3.358-7.5-7.5-7.5zm7.932 39.139v36.997h-52.291v-36.997h7.932c4.142 0 7.5-3.358 7.5-7.5v-16.639h21.427v16.639c0 4.142 3.358 7.5 7.5 7.5z"/><path d="m197.877 104.158h-36.427c-4.142 0-7.5 3.358-7.5 7.5v16.639h-7.932c-4.142 0-7.5 3.358-7.5 7.5v51.997c0 4.142 3.358 7.5 7.5 7.5h67.291c4.142 0 7.5-3.358 7.5-7.5v-51.997c0-4.142-3.358-7.5-7.5-7.5h-7.932v-16.639c0-4.142-3.358-7.5-7.5-7.5zm7.932 39.139v36.997h-52.291v-36.997h7.932c4.142 0 7.5-3.358 7.5-7.5v-16.639h21.427v16.639c0 4.142 3.358 7.5 7.5 7.5z"/><path d="m301.502 104.158h-36.427c-4.142 0-7.5 3.358-7.5 7.5v16.639h-7.932c-4.142 0-7.5 3.358-7.5 7.5v51.997c0 4.142 3.358 7.5 7.5 7.5h67.291c4.142 0 7.5-3.358 7.5-7.5v-51.997c0-4.142-3.358-7.5-7.5-7.5h-7.933v-16.639c.001-4.142-3.356-7.5-7.499-7.5zm7.933 39.139v36.997h-52.292v-36.997h7.932c4.142 0 7.5-3.358 7.5-7.5v-16.639h21.427v16.639c0 4.142 3.358 7.5 7.5 7.5z"/><path d="m405.129 104.158h-36.427c-4.142 0-7.5 3.358-7.5 7.5v16.639h-7.932c-4.142 0-7.5 3.358-7.5 7.5v51.997c0 4.142 3.358 7.5 7.5 7.5h67.291c4.142 0 7.5-3.358 7.5-7.5v-51.997c0-4.142-3.358-7.5-7.5-7.5h-7.932v-16.639c0-4.142-3.358-7.5-7.5-7.5zm7.932 39.139v36.997h-52.291v-36.997h7.932c4.142 0 7.5-3.358 7.5-7.5v-16.639h21.427v16.639c0 4.142 3.358 7.5 7.5 7.5z"/></g></g></svg>