<svg id="Capa_1" enable-background="new 0 0 512 512" height="512" viewBox="0 0 512 512" width="512" xmlns="http://www.w3.org/2000/svg"><g><g><path d="m102.245 53.293c-7.559 7.559-7.559 19.815 0 27.374l20.952 20.952c7.559 7.559 19.815 7.559 27.374 0 7.559-7.559 7.559-19.815 0-27.375l-20.951-20.951c-7.56-7.559-19.816-7.559-27.375 0z" fill="#f7e471"/><path d="m150.571 74.245-14.727-14.727c7.531 7.562 7.523 19.795-.027 27.345-7.559 7.559-19.815 7.559-27.375 0l14.754 14.756c7.559 7.559 19.815 7.559 27.374 0 7.561-7.559 7.561-19.815.001-27.374z" fill="#f1cb66"/><path d="m436.392 504h-275.57c-10.303 0-18.656-8.353-18.656-18.656 0-10.303 8.353-18.656 18.656-18.656h275.57c10.303 0 18.656 8.353 18.656 18.656 0 10.303-8.353 18.656-18.656 18.656z" fill="#eaf1ff"/><path d="m436.392 486h-275.57c-7.039 0-13.162-3.901-16.339-9.656-1.473 2.669-2.317 5.735-2.317 9 0 10.304 8.353 18.656 18.656 18.656h275.57c10.303 0 18.656-8.353 18.656-18.656 0-3.265-.843-6.331-2.317-9-3.177 5.755-9.301 9.656-16.339 9.656z" fill="#d5e7ff"/><path d="m322.095 272.792c-.059.059-.115.119-.173.178-20.199 20.199-44.166 34.325-69.637 42.398l-81.154 151.32h254.952z" fill="#0a617d"/><path d="m180.784 448.688-9.653 18h254.951l-9.653-18z" fill="#08475e"/><g><path d="m92.762 285.98c67.661 53.959 166.519 49.631 229.16-13.01s66.97-161.499 13.01-229.16z" fill="#dc5c65"/></g><path d="m346.131 59.611c-3.404-5.424-7.133-10.702-11.199-15.801l-242.17 242.17c5.098 4.066 10.377 7.795 15.801 11.199z" fill="#b94551"/><path d="m329.65 286.879-7.555-14.087c-.058.059-.115.119-.174.178-20.199 20.199-44.166 34.325-69.637 42.398l-10.481 19.543c26.681-5.534 52.436-17.492 74.871-36.102 4.575-3.795 8.896-7.782 12.976-11.93z" fill="#08475e"/><path d="m337.446 41.296-247.198 247.198c-7.617 7.617-19.966 7.617-27.583 0-7.617-7.617-7.617-19.966 0-27.583l247.198-247.198c7.617-7.617 19.966-7.617 27.583 0 7.617 7.616 7.617 19.966 0 27.583z" fill="#eaf1ff"/><path d="m337.446 13.713c-2.303-2.303-5.041-3.897-7.947-4.807 2.021 6.665.403 14.198-4.866 19.466l-247.199 247.198c-5.314 5.314-12.929 6.909-19.636 4.807.901 2.97 2.519 5.769 4.867 8.117 7.617 7.617 19.966 7.617 27.583 0l247.198-247.198c7.617-7.617 7.617-19.966 0-27.583z" fill="#d5e7ff"/></g><path d="m436.737 459.581h-5.833l-99.485-185.502c38.954-41.573 56.039-99.309 45.774-155.657-.745-4.084-4.653-6.785-8.742-6.047-4.083.745-6.79 4.658-6.047 8.742 9.734 53.421-7.346 108.206-45.688 146.546-57.506 57.508-147.612 64.446-212.901 17.565l61.301-61.302c2.935-2.936 2.935-7.693 0-10.629-2.936-2.934-7.693-2.934-10.629 0l-69.921 69.923c-4.476 4.667-12.534 4.667-17.011 0-4.667-4.476-4.667-12.534 0-17.011l247.708-247.708c4.477-4.666 12.534-4.666 17.01.001 4.667 4.476 4.667 12.534 0 17.011l-156.528 156.527c-2.935 2.936-2.935 7.693 0 10.629 2.936 2.934 7.694 2.934 10.629 0l147.903-147.903c8.541 11.908 15.436 24.862 20.531 38.619 3.312 9.228 17.602 3.845 14.095-5.22-5.869-15.849-13.923-30.722-23.97-44.303 8.53-10.286 7.64-26.693-2.031-35.988-10.073-10.499-28.195-10.498-38.268-.001l-13.488 13.488-148.932 33.74-7.566-7.566c-10.494-10.492-27.567-10.492-38.06 0-10.442 10.017-10.44 28.042-.001 38.06l7.566 7.566-33.74 148.932-13.486 13.487c-10.498 10.072-10.499 28.196-.001 38.268 9.297 9.673 25.706 10.562 35.993 2.03 31.916 23.631 69.471 35.289 106.917 35.289 12.618 0 25.222-1.334 37.594-3.968l-70.997 132.382h-5.833c-14.451 0-26.209 11.758-26.209 26.209 0 14.452 11.758 26.21 26.209 26.21h276.138c14.453 0 26.21-11.758 26.21-26.21-.001-14.452-11.759-26.209-26.211-26.209zm-329.521-401.416c4.423-4.61 12.381-4.61 16.803 0l20.994 20.994c4.633 4.632 4.633 12.17.001 16.802-4.634 4.632-12.171 4.633-16.802 0l-20.995-20.995c-4.611-4.422-4.61-12.379-.001-16.801zm9.502 47.561.864.864c10.493 10.493 27.566 10.49 38.06 0 10.492-10.493 10.492-27.567 0-38.061l-.863-.863 116.441-26.38-180.881 180.882zm320.019 391.243h-276.138c-6.164 0-11.178-5.015-11.178-11.179s5.014-11.178 11.178-11.178h80.923c4.151 0 7.516-3.364 7.516-7.515s-3.364-7.515-7.516-7.515h-58.034l73.936-137.861c22.683-7.642 44.111-19.896 62.809-36.693l93.614 174.554h-142.263c-4.151 0-7.515 3.364-7.515 7.515s3.364 7.515 7.515 7.515h165.153c6.164 0 11.179 5.014 11.179 11.178s-5.015 11.179-11.179 11.179z"/></g></svg>