<svg id="Layer_1" enable-background="new 0 0 512.036 512.036" height="512" viewBox="0 0 512.036 512.036" width="512" xmlns="http://www.w3.org/2000/svg"><path d="m512.036 16.018v64c0 8.84-7.16 16-16 16-44.11 0-80 35.89-80 80v160c0 97.05-78.95 176-176 176h-32c-70.58 0-128-57.42-128-128 0-8.84 7.16-16 16-16h64c8.84 0 16 7.16 16 16 0 17.65 14.36 32 32 32h32c44.11 0 80-35.89 80-80v-160c0-97.05 78.95-176 176-176 8.84 0 16 7.16 16 16z" fill="#ece2e2"/><path d="m192.036 304.018v80c0 7.45-5.1 13.7-12 15.47.459.825 8.381.53-100 .53-8.84 0-16-7.16-16-16v-80z" fill="#999"/><path d="m256.036 160.018c0 52.722.239 49.403-.62 52.4-21.333 74.683-13.461 47.133-32 112-1.96 6.86-8.24 11.6-15.38 11.6h-160c-7.14 0-13.42-4.74-15.38-11.6l-32-112c-.881-3.072-.62-.688-.62-52.4 0-8.844 7.16-16 16-16h224c8.84 0 16 7.16 16 16z" fill="#aaa"/><path d="m256.036 160.018c0 52.722.239 49.403-.62 52.4l-17.31 60.6h-109.07c-67.24 0-122.47-51.46-128.46-117.14 1.82-6.83 8.05-11.86 15.46-11.86h224c8.84 0 16 7.16 16 16z" fill="#b2b2b2"/><path d="m240.036 32.018v144h-224v-144c0-8.84 7.16-16 16-16h192c8.84 0 16 7.16 16 16z" fill="#ece2e2"/><path d="m176.036 16.018v80c0 8.84-7.16 16-16 16h-64c-8.84 0-16-7.16-16-16v-80c0-8.84 7.16-16 16-16h64c8.84 0 16 7.16 16 16z" fill="#f2f2f2"/><path d="m496.036 64.018c-61.76 0-112 50.24-112 112v160c0 79.4-64.6 144-144 144h-32c-47.48 0-87.03-34.65-94.67-80h32.69c7.13 27.57 32.21 48 61.98 48h32c61.76 0 112-50.24 112-112v-160c0-79.4 64.6-144 144-144 8.84 0 16-7.16 16-16s-7.16-16-16-16c-97.05 0-176 78.95-176 176v160c0 44.11-35.89 80-80 80h-32c-11.978 0-22.492-6.628-28-16.53 6.9-1.77 12-8.02 12-15.47v-48h16c7.14 0 13.42-4.74 15.38-11.6l32-112c.881-3.072.62-.688.62-52.4 0-8.84-7.16-16-16-16v-112c0-8.84-7.16-16-16-16h-48c0-8.84-7.16-16-16-16h-64c-8.84 0-16 7.16-16 16h-48c-8.84 0-16 7.16-16 16v112c-8.84 0-16 7.16-16 16v48c0 3.274-2.156-5.316 32.62 116.4 1.96 6.86 8.24 11.6 15.38 11.6h16v48c0 8.097 6.089 16 17 16 7.9 63.06 61.84 112 127 112h32c97.05 0 176-78.95 176-176v-160c0-44.11 35.89-80 80-80 8.84 0 16-7.16 16-16s-7.16-16-16-16zm-400 304v-32h64v32zm80-272v-48h32v96h-64v-32h16c8.84 0 16-7.16 16-16zm-64-64h32v48h-32zm-64 16h32v48c0 8.84 7.16 16 16 16h16v32h-64zm12.07 256-28.07-98.24v-29.76h192v29.76l-28.07 98.24z"/><path d="m176.036 240.018c8.837 0 16-7.164 16-16s-7.163-16-16-16h-96c-8.837 0-16 7.164-16 16s7.163 16 16 16z"/></svg>