<svg id="Capa_1" enable-background="new 0 0 512 512" height="512" viewBox="0 0 512 512" width="512" xmlns="http://www.w3.org/2000/svg"><g><g><g><path d="m469.324 177.387h-309.866v-57.69c0-8.011 6.494-14.505 14.505-14.505h280.857c8.011 0 14.505 6.494 14.505 14.505v57.69z" fill="#c9e0fd"/><path d="m366.084 7.5h-163.399c-7.6 0-13.761 6.161-13.761 13.761v156.126h190.921v-156.126c0-7.6-6.161-13.761-13.761-13.761z" fill="#f7f4f7"/><path d="m426.097 7.5h-64.057c7.6 0 13.761 6.161 13.761 13.761v156.126h64.057v-156.126c0-7.6-6.161-13.761-13.761-13.761z" fill="#edeaed"/></g><g><g><g><g><g><g><g><path d="m27.366 447.948h393.861c12.523 0 22.675-10.152 22.675-22.675v-253.86c0-12.355-8.451-22.737-19.888-25.679h-390.026c-14.251 0-25.804 11.553-25.804 25.804v256.947c0 10.552 8.404 19.375 18.956 19.463z" fill="#5884c9"/><path d="m478.012 145.733h-64.449c14.251 0 25.804 11.553 25.804 25.804v247.061c0 12.188-9.88 22.068-22.068 22.068h-383.311c-14.251 0-25.803-11.553-25.803-25.803v25.819c0 14.251 11.553 25.803 25.803 25.803h444.024c14.251 0 25.804-11.553 25.804-25.804v-269.144c0-14.251-11.553-25.804-25.804-25.804z" fill="#4478c1"/><path d="m98.81 487.86v-51.288c0-23.739-2.391-47.418-7.136-70.678l-.3-1.472v-116.626l4.211-30.96c2.148-15.793 3.226-31.712 3.226-47.65v-44.828c0-9.19-7.45-16.64-16.64-16.64h-6.219c-17.409 0-31.523 14.113-31.523 31.522v28.937c0 16.609 1.123 33.199 3.361 49.656l4.075 29.962v116.626c-4.945 24.239-7.436 48.914-7.436 73.653v34.903c0 17.409 14.113 31.522 31.523 31.522h6.219c9.189.001 16.639-7.449 16.639-16.639z" fill="#88a8d8"/><path d="m152.022 247.796 4.075-29.962c2.238-16.457 3.361-33.047 3.361-49.656v-28.938c0-17.409-14.113-31.522-31.522-31.522h-49.175c9.19 0 16.64 7.45 16.64 16.64v44.828c0 15.938-1.078 31.858-3.226 47.65l-4.211 30.96v116.626l.3 1.472c4.745 23.26 7.136 46.939 7.136 70.678v51.288c0 9.19-7.45 16.64-16.64 16.64h49.174c17.409 0 31.522-14.113 31.522-31.522v-34.903c0-24.738-2.491-49.414-7.436-73.653v-116.626z" fill="#7296d1"/></g></g></g></g></g></g></g><g><path d="m417.488 263.797h-206.194c-5.617 0-10.17-4.553-10.17-10.17v-48.112c0-5.617 4.553-10.17 10.17-10.17h206.193c5.617 0 10.17 4.553 10.17 10.17v48.112c.001 5.616-4.553 10.17-10.169 10.17z" fill="#f4e066"/><g fill="#3b69ad"><g><path d="m228.554 337.997h-20.184c-4.001 0-7.245-3.244-7.245-7.245v-19.424c0-4.001 3.244-7.245 7.245-7.245h20.185c4.001 0 7.245 3.244 7.245 7.245v19.424c-.001 4.001-3.244 7.245-7.246 7.245z"/><path d="m292.507 337.997h-20.185c-4.001 0-7.245-3.244-7.245-7.245v-19.424c0-4.001 3.244-7.245 7.245-7.245h20.185c4.001 0 7.245 3.244 7.245 7.245v19.424c0 4.001-3.244 7.245-7.245 7.245z"/><path d="m356.46 337.997h-20.185c-4.001 0-7.245-3.244-7.245-7.245v-19.424c0-4.001 3.244-7.245 7.245-7.245h20.185c4.001 0 7.245 3.244 7.245 7.245v19.424c0 4.001-3.244 7.245-7.245 7.245z"/><path d="m420.413 337.997h-20.185c-4.001 0-7.245-3.244-7.245-7.245v-19.424c0-4.001 3.244-7.245 7.245-7.245h20.185c4.001 0 7.245 3.244 7.245 7.245v19.424c0 4.001-3.244 7.245-7.245 7.245z"/></g><g><path d="m228.554 410.929h-20.184c-4.001 0-7.245-3.244-7.245-7.245v-19.424c0-4.001 3.244-7.245 7.245-7.245h20.185c4.001 0 7.245 3.244 7.245 7.245v19.424c-.001 4.001-3.244 7.245-7.246 7.245z"/><path d="m292.507 410.929h-20.185c-4.001 0-7.245-3.244-7.245-7.245v-19.424c0-4.001 3.244-7.245 7.245-7.245h20.185c4.001 0 7.245 3.244 7.245 7.245v19.424c0 4.001-3.244 7.245-7.245 7.245z"/><path d="m356.46 410.929h-20.185c-4.001 0-7.245-3.244-7.245-7.245v-19.424c0-4.001 3.244-7.245 7.245-7.245h20.185c4.001 0 7.245 3.244 7.245 7.245v19.424c0 4.001-3.244 7.245-7.245 7.245z"/><path d="m420.413 410.929h-20.185c-4.001 0-7.245-3.244-7.245-7.245v-19.424c0-4.001 3.244-7.245 7.245-7.245h20.185c4.001 0 7.245 3.244 7.245 7.245v19.424c0 4.001-3.244 7.245-7.245 7.245z"/></g></g></g></g><g><g><path d="m387.312 58.573h-145.92c-4.234 0-7.665 3.432-7.665 7.665s3.431 7.665 7.665 7.665h145.92c4.234 0 7.665-3.432 7.665-7.665s-3.431-7.665-7.665-7.665z"/><path d="m387.312 94.34h-145.92c-4.234 0-7.665 3.432-7.665 7.665s3.431 7.665 7.665 7.665h145.92c4.234 0 7.665-3.432 7.665-7.665 0-4.234-3.431-7.665-7.665-7.665z"/><path d="m477.865 138.142h-1.018v-18.355c0-12.219-9.941-22.16-22.16-22.16h-7.286v-13.472c0-4.233-3.431-7.665-7.665-7.665s-7.665 3.432-7.665 7.665v53.987h-235.437v-116.725c0-3.357 2.731-6.087 6.087-6.087h223.263c3.357 0 6.088 2.731 6.088 6.087v26.905c0 4.233 3.431 7.665 7.665 7.665s7.665-3.432 7.665-7.665v-26.905c-.001-11.81-9.609-21.417-21.418-21.417h-223.263c-11.809 0-21.416 9.607-21.416 21.417v76.211h-7.287c-8.753 0-16.335 5.102-19.934 12.488-6.929-6.191-16.062-9.963-26.063-9.963h-51.951c-21.201 0-38.51 16.937-39.136 37.99h-2.799c-18.445 0-33.451 15.006-33.451 33.451v268.967c0 18.445 15.006 33.451 33.451 33.451h2.799c.626 21.051 17.935 37.988 39.136 37.988h51.95c21.202 0 38.511-16.937 39.137-37.99h310.709c18.445 0 33.451-15.006 33.451-33.451v-268.967c-.001-18.444-15.007-33.45-33.452-33.45zm-30.464-25.185h7.286c3.766 0 6.83 3.064 6.83 6.83v18.355h-14.117v-25.185zm-273.384 0h7.287v25.185h-14.118v-18.355c.001-3.767 3.065-6.83 6.831-6.83zm-158.004 327.602v-268.967c0-9.992 8.13-18.121 18.122-18.121h2.769v14.765c0 35.81 4.911 58.652 7.431 80.084v115.26c-9.671 47.91-6.965 81.911-7.431 95.1h-2.769c-9.992.001-18.122-8.129-18.122-18.121zm135.844 32.275c0 13.144-10.694 23.837-23.837 23.837h-51.95c-13.144 0-23.836-10.693-23.836-23.837.712-24.236-2.767-57.726 7.276-106.951.103-.504.155-1.018.155-1.532v-116.55c0-.345-.023-.691-.07-1.033-2.506-21.219-7.361-43.883-7.361-78.532v-28.918c0-13.144 10.693-23.837 23.836-23.837h51.95c13.144 0 23.837 10.693 23.837 23.837v6.489 22.43c0 34.514-4.76 56.502-7.361 78.532-.047.342-.07.688-.07 1.033v116.548c0 .514.052 1.028.155 1.532 10.035 49.194 6.558 82.51 7.276 106.952zm344.13-32.275c0 9.993-8.13 18.122-18.122 18.122h-310.678c-.444-12.542 2.249-47.134-7.431-95.1v-115.261c2.533-21.543 7.431-44.157 7.431-80.084v-14.765h310.679c9.992 0 18.122 8.129 18.122 18.121v268.967z"/><path d="m417.381 187.72h-206.057c-9.83 0-17.828 7.997-17.828 17.828v48.08c0 9.83 7.998 17.828 17.828 17.828h35.831c4.234 0 7.665-3.432 7.665-7.665s-3.431-7.665-7.665-7.665h-35.831c-1.378 0-2.499-1.121-2.499-2.498v-48.08c0-1.378 1.121-2.498 2.499-2.498h206.057c1.377 0 2.498 1.121 2.498 2.498v48.08c0 1.378-1.121 2.498-2.498 2.498h-134.392c-4.234 0-7.665 3.432-7.665 7.665s3.431 7.665 7.665 7.665h134.392c9.83 0 17.827-7.997 17.827-17.828v-48.08c.001-9.83-7.996-17.828-17.827-17.828z"/><path d="m228.573 296.387h-20.172c-8.219 0-14.905 6.686-14.905 14.905v19.411c0 8.219 6.687 14.905 14.905 14.905h20.172c8.219 0 14.904-6.687 14.904-14.905v-19.411c0-8.219-6.686-14.905-14.904-14.905zm-.425 33.891h-19.322v-18.562h19.322z"/><path d="m292.483 296.387h-20.172c-8.219 0-14.905 6.686-14.905 14.905v19.411c0 8.219 6.687 14.905 14.905 14.905h20.172c8.219 0 14.905-6.687 14.905-14.905v-19.411c0-8.219-6.686-14.905-14.905-14.905zm-.424 33.891h-19.323v-18.562h19.323z"/><path d="m356.393 296.387h-20.172c-8.219 0-14.905 6.686-14.905 14.905v19.411c0 8.219 6.687 14.905 14.905 14.905h20.172c8.219 0 14.905-6.687 14.905-14.905v-19.411c0-8.219-6.686-14.905-14.905-14.905zm-.424 33.891h-19.323v-18.562h19.323z"/><path d="m420.303 296.387h-20.172c-8.219 0-14.904 6.686-14.904 14.905v19.411c0 8.219 6.686 14.905 14.904 14.905h20.172c8.219 0 14.905-6.687 14.905-14.905v-19.411c.001-8.219-6.686-14.905-14.905-14.905zm-.424 33.891h-19.322v-18.562h19.322z"/><path d="m228.573 369.27h-20.172c-8.219 0-14.905 6.686-14.905 14.905v19.411c0 8.219 6.687 14.905 14.905 14.905h20.172c8.219 0 14.904-6.686 14.904-14.905v-19.411c0-8.218-6.686-14.905-14.904-14.905zm-.425 33.892h-19.322v-18.562h19.322z"/><path d="m292.483 369.27h-20.172c-8.219 0-14.905 6.686-14.905 14.905v19.411c0 8.219 6.687 14.905 14.905 14.905h20.172c8.219 0 14.905-6.686 14.905-14.905v-19.411c0-8.218-6.686-14.905-14.905-14.905zm-.424 33.892h-19.323v-18.562h19.323z"/><path d="m356.393 369.27h-20.172c-8.219 0-14.905 6.686-14.905 14.905v19.411c0 8.219 6.687 14.905 14.905 14.905h20.172c8.219 0 14.905-6.686 14.905-14.905v-19.411c0-8.218-6.686-14.905-14.905-14.905zm-.424 33.892h-19.323v-18.562h19.323z"/><path d="m420.303 369.27h-20.172c-8.219 0-14.904 6.686-14.904 14.905v19.411c0 8.219 6.686 14.905 14.904 14.905h20.172c8.219 0 14.905-6.686 14.905-14.905v-19.411c.001-8.218-6.686-14.905-14.905-14.905zm-.424 33.892h-19.322v-18.562h19.322z"/></g></g></g></svg>