<svg height="512pt" viewBox="0 0 512 512" width="512pt" xmlns="http://www.w3.org/2000/svg"><path d="m420.179688 0h29.941406v135.734375h-29.941406zm0 0" fill="#ecc04b"/><path d="m300.414062 0h29.941407v135.734375h-29.941407zm0 0" fill="#ecc04b"/><path d="m180.648438 0h29.941406v135.734375h-29.941406zm0 0" fill="#eded51"/><path d="m60.882812 0h29.941407v135.734375h-29.941407zm0 0" fill="#eded51"/><path d="m390.238281 120.765625v135.734375l89.824219-14.972656v-120.761719zm0 0" fill="#6461ac"/><path d="m270.472656 120.765625h89.824219v135.734375h-89.824219zm0 0" fill="#e71a1a"/><path d="m150.707031 120.765625h89.824219v135.734375h-89.824219zm0 0" fill="#ec9345"/><path d="m30.941406 241.527344 89.824219 34.933594v-155.695313h-89.824219zm0 0" fill="#ea3838"/><path d="m480.0625 301.410156v-59.882812h-224.5625l-194.617188 119.765625zm0 0" fill="#424247"/><path d="m255.5 241.527344h-224.558594v59.882812l224.558594 59.882813zm0 0" fill="#57575e"/><path d="m480.0625 301.410156h-224.5625l-224.558594 89.824219h449.121094zm0 0" fill="#57575e"/><path d="m30.941406 301.410156h224.558594v89.824219h-224.558594zm0 0" fill="#787881"/><path d="m511 361.292969h-255.5l-59.882812 75.355469 59.882812 75.351562h255.5zm0 0" fill="#9999a4"/><path d="m0 361.292969h255.5v150.707031h-255.5zm0 0" fill="#b9b9c8"/></svg>