<svg height="512" viewBox="0 0 64 64" width="512" xmlns="http://www.w3.org/2000/svg"><g id="Filled_outline" data-name="Filled outline"><path d="m53 3h-13l-4 2v4l4 2h13a4 4 0 0 0 0-8z" fill="#50b4f8"/><path d="m40 61h-24l8-4h8z" fill="#2d75bb"/><path d="m24 53h8v4h-8z" fill="#50b4f8"/><path d="m26 15v38h4v-38a6 6 0 0 1 6-6v-4a10 10 0 0 0 -10 10z" fill="#394d5c"/><path d="m26 47h4v6h-4z" fill="#2d75bb"/><path d="m26 24h4v4h-4z" fill="#e1462b"/><path d="m26 28h4v4h-4z" fill="#fcf05a"/><path d="m53 2h-13a1 1 0 0 0 -.447.1l-3.816 1.913a11.007 11.007 0 0 0 -10.737 10.987v33h-6a3 3 0 0 0 -3 3v2a1 1 0 0 1 -1 1h-8v2h8a3 3 0 0 0 3-3v-2a1 1 0 0 1 1-1h6v2h-1a1 1 0 0 0 -1 1v3.382l-7.447 3.723a1 1 0 0 0 .447 1.895h24a1 1 0 0 0 .447-1.9l-7.447-3.718v-3.382a1 1 0 0 0 -1-1h-1v-37a5 5 0 0 1 4.8-4.98l3.75 1.875a1 1 0 0 0 .45.105h13a5 5 0 0 0 0-10zm-26 23h2v2h-2zm0 4h2v2h-2zm0 4h2v13h-2zm0 15h2v4h-2zm-2 6h6v2h-6zm6.764 4 4 2h-15.528l4-2zm3.236-49.929a7.011 7.011 0 0 0 -6 6.929v8h-2v-8a9.012 9.012 0 0 1 8-8.944zm19 1.745v-1.816h-2v2h-2v-2h-2v2h-2v-2h-2v2h-2v-2h-2v1.882l-3-1.5v-2.764l3-1.5v1.882h2v-2h2v2h2v-2h2v2h2v-2h2v2h2v-1.816a2.982 2.982 0 0 1 0 5.632z"/></g></svg>