<svg id="Capa_1" enable-background="new 0 0 510.809 510.809" height="512" viewBox="0 0 510.809 510.809" width="512" xmlns="http://www.w3.org/2000/svg"><g><g><g><path d="m240.782 438.345h28.51c3.88 0 7.026 3.146 7.026 7.026v28.51c0 3.88-3.146 7.026-7.026 7.026h-28.51c-3.88 0-7.026-3.146-7.026-7.026v-28.51c0-3.88 3.145-7.026 7.026-7.026z" fill="#ffe07d"/></g></g><g><g><path d="m64.94 438.345h28.51c3.88 0 7.026 3.146 7.026 7.026v28.51c0 3.88-3.146 7.026-7.026 7.026h-28.51c-3.88 0-7.026-3.146-7.026-7.026v-28.51c0-3.88 3.145-7.026 7.026-7.026z" fill="#ff8086"/></g></g><g><g><path d="m403.368 438.345h28.51c3.88 0 7.026 3.146 7.026 7.026v28.51c0 3.88-3.146 7.026-7.026 7.026h-28.51c-3.88 0-7.026-3.146-7.026-7.026v-28.51c0-3.88 3.146-7.026 7.026-7.026z" fill="#ffe07d"/></g></g><g><g><ellipse cx="318.201" cy="173.415" fill="#62a4fb" rx="143.513" ry="143.513" transform="matrix(.707 -.707 .707 .707 -29.424 275.794)"/></g></g><g><g><path d="m318.201 29.902c-5.066 0-10.069.266-15 .778 72.21 7.5 128.513 68.54 128.513 142.734s-56.303 135.234-128.513 142.734c4.931.512 9.934.778 15 .778 79.26 0 143.513-64.253 143.513-143.512-.001-79.259-64.254-143.512-143.513-143.512z" fill="#5392f9"/></g></g><g><g><ellipse cx="318.201" cy="173.415" fill="#80b6fc" rx="50.982" ry="143.513"/></g></g><g><g><path d="m116.834 380.934h274.573c28.491 0 52.477-22.298 53.454-50.773.024-.703.036-1.41.036-2.119 0-33.532-27.183-60.715-60.715-60.715-.023 0-.046.002-.068.002.039-.896.068-1.795.068-2.701 0-33.532-27.183-60.715-60.715-60.715-10.446 0-20.275 2.64-28.859 7.287-14.08-30.281-44.076-51.665-79.242-53.389-52.283-2.563-96.733 39.455-97.018 91.799-.033 6.112.534 12.084 1.634 17.868-31.629 2.099-56.639 28.403-56.639 60.563 0 .709.012 1.416.036 2.119.979 28.476 24.964 50.774 53.455 50.774z" fill="#ddebfd"/></g></g><g><g><path d="m384.184 267.327c-.023 0-.046.002-.069.002.039-.896.069-1.795.069-2.701 0-33.532-27.183-60.715-60.715-60.715-10.446 0-20.275 2.64-28.859 7.287-14.08-30.281-44.076-51.665-79.242-53.389-26.951-1.321-51.82 9.204-69.632 26.883 12.183-5.053 25.626-7.57 39.632-6.883 24.84 1.218 47.1 12.245 62.994 29.287 10.632 11.4 25.663 17.921 41.221 16.937 1.285-.081 2.581-.122 3.887-.122 33.297 0 48.365 20.707 55.165 38.455 5.13 13.39 15.451 24.058 28.705 29.531 22.045 9.102 37.559 30.811 37.559 56.143 0 .709-.012 1.416-.036 2.119-.375 10.927-4.148 20.938-10.254 29.134 22.349-5.63 39.432-25.197 40.254-49.134.024-.703.036-1.41.036-2.119-.001-33.531-27.184-60.715-60.715-60.715z" fill="#bed9fd"/></g></g><g><g><path d="m188.169 340.966c-.798 1.994-3.389 2.691-5.98 2.691-2.99 0-5.781-.997-6.379-2.691l-6.578-17.343-6.578 17.343c-.599 1.694-3.488 2.691-6.479 2.691-2.492 0-5.083-.698-5.881-2.691l-15.35-38.373c-.398-.997-.498-1.495-.498-2.093 0-3.588 6.18-6.18 10.167-6.18 1.993 0 3.688.698 4.285 2.392l8.871 25.316 6.379-21.429c.797-2.691 2.791-2.99 5.083-2.99 2.192 0 4.286.299 5.083 2.99l6.379 21.429 8.871-25.316c.498-1.495 2.093-2.392 4.186-2.392 3.788 0 10.167 2.591 10.167 6.379 0 .598-.1 1.295-.399 1.894z"/></g><g><path d="m270.095 340.966c-.798 1.994-3.389 2.691-5.98 2.691-2.99 0-5.781-.997-6.379-2.691l-6.578-17.343-6.578 17.343c-.599 1.694-3.488 2.691-6.479 2.691-2.492 0-5.083-.698-5.881-2.691l-15.35-38.373c-.398-.997-.498-1.495-.498-2.093 0-3.588 6.18-6.18 10.167-6.18 1.993 0 3.688.698 4.285 2.392l8.871 25.316 6.379-21.429c.797-2.691 2.791-2.99 5.083-2.99 2.192 0 4.286.299 5.083 2.99l6.379 21.429 8.871-25.316c.498-1.495 2.093-2.392 4.186-2.392 3.788 0 10.167 2.591 10.167 6.379 0 .598-.1 1.295-.399 1.894z"/></g><g><path d="m352.021 340.966c-.798 1.994-3.389 2.691-5.98 2.691-2.99 0-5.781-.997-6.379-2.691l-6.578-17.343-6.578 17.343c-.599 1.694-3.488 2.691-6.479 2.691-2.492 0-5.083-.698-5.881-2.691l-15.35-38.373c-.398-.997-.498-1.495-.498-2.093 0-3.588 6.18-6.18 10.167-6.18 1.993 0 3.688.698 4.285 2.392l8.871 25.316 6.379-21.429c.797-2.691 2.791-2.99 5.083-2.99 2.192 0 4.286.299 5.083 2.99l6.379 21.429 8.871-25.316c.498-1.495 2.093-2.392 4.186-2.392 3.788 0 10.167 2.591 10.167 6.379 0 .598-.1 1.295-.399 1.894z"/></g></g><g><g><path d="" style="fill:none;stroke:#000;stroke-width:15;stroke-linecap:round;stroke-linejoin:round;stroke-miterlimit:10"/></g></g><path d="m503.309 452.126h-56.904v-6.755c0-8.01-6.517-14.526-14.526-14.526h-28.51c-8.01 0-14.525 6.516-14.525 14.526v6.755h-105.027v-6.755c0-8.01-6.517-14.526-14.526-14.526h-6.755v-42.411h128.871c15.759 0 30.742-5.95 42.191-16.753 11.558-10.905 18.219-25.559 18.758-41.259.027-.79.042-1.583.042-2.379 0-20.635-9.217-39.151-23.742-51.67 26.208-28.027 40.556-64.254 40.556-102.957 0-28.248-7.85-55.796-22.7-79.666-2.188-3.517-6.814-4.595-10.33-2.406-3.517 2.188-4.595 6.813-2.406 10.33 8.377 13.465 14.278 28.232 17.518 43.643-17.52-12.232-46.172-20.743-78.184-25.255-2.602-18.719-6.573-35.94-11.793-50.635-4.21-11.851-9.013-21.54-14.313-28.986 26.037 5.571 49.841 18.694 68.859 38.312 2.882 2.973 7.63 3.048 10.605.164 2.974-2.883 3.047-7.631.164-10.605-28.7-29.604-67.21-45.908-108.434-45.908-78.396 0-143.587 60.066-150.415 137.586-9.256 4.465-17.891 10.402-25.622 17.723-20.045 18.982-31.165 44.501-31.314 71.859-.021 3.815.178 7.642.592 11.442-31.756 5.958-55.597 33.978-55.597 67.03 0 .793.014 1.583.041 2.377.539 15.703 7.2 30.357 18.758 41.262 11.449 10.804 26.434 16.753 42.191 16.753h17.413c4.143 0 7.5-3.358 7.5-7.5s-3.357-7.5-7.5-7.5h-17.413c-24.518 0-45.135-19.527-45.958-43.522-.021-.621-.032-1.244-.032-1.87 0-27.917 21.803-51.233 49.636-53.08 2.143-.142 4.122-1.196 5.436-2.895 1.313-1.699 1.837-3.879 1.436-5.989-1.026-5.399-1.532-10.925-1.502-16.426.126-23.227 9.583-44.907 26.628-61.049 17.069-16.166 39.273-24.447 62.522-23.301 31.56 1.547 59.458 20.346 72.81 49.06.872 1.876 2.48 3.308 4.443 3.958 1.966.65 4.109.46 5.928-.524 7.714-4.175 16.458-6.382 25.289-6.382 29.343 0 53.215 23.872 53.215 53.215 0 .796-.027 1.587-.061 2.375-.089 2.044.661 4.036 2.076 5.513 1.414 1.478 3.371 2.314 5.417 2.314.049 0 .104 0 .16-.002 29.301.05 53.123 23.902 53.123 53.215 0 .623-.011 1.242-.032 1.862-.824 24.003-21.441 43.53-45.959 43.53h-227.16c-4.143 0-7.5 3.358-7.5 7.5s3.357 7.5 7.5 7.5h83.289v42.411h-6.755c-8.01 0-14.525 6.516-14.525 14.526v6.755h-118.28v-6.755c0-8.01-6.517-14.526-14.526-14.526h-28.51c-8.01 0-14.525 6.516-14.525 14.526v6.755h-42.915c-4.143 0-7.5 3.358-7.5 7.5s3.357 7.5 7.5 7.5h42.914v6.755c0 8.01 6.516 14.526 14.525 14.526h28.51c8.01 0 14.526-6.516 14.526-14.526v-6.755h118.28v6.755c0 8.01 6.516 14.526 14.525 14.526h28.51c8.01 0 14.526-6.516 14.526-14.526v-6.755h105.025v6.755c0 8.01 6.516 14.526 14.525 14.526h28.51c8.01 0 14.526-6.516 14.526-14.526v-6.755h56.904c4.143 0 7.5-3.358 7.5-7.5.003-4.146-3.355-7.504-7.497-7.504zm-86.081-306.713c23.159 8.008 36.985 18.476 36.985 28.002 0 13.111-27.218 30.099-79.309 38.016 1.178-12.343 1.779-25.082 1.779-38.016 0-13.007-.615-25.756-1.781-38.021 15.604 2.377 29.948 5.74 42.326 10.019zm-70.045-70.966c4.533 12.759 8.069 27.606 10.519 43.777-12.996-1.28-26.322-1.933-39.501-1.933-13.424 0-26.707.653-39.495 1.895 2.45-16.156 5.983-30.99 10.512-43.739 8.24-23.196 19.075-37.044 28.982-37.044 9.908-.001 20.742 13.848 28.983 37.044zm-57.817-33.965c-5.287 7.44-10.08 17.115-14.281 28.944-5.215 14.68-9.183 31.881-11.785 50.578-14.11 1.974-27.369 4.702-39.206 8.126-12.594 3.643-27.572 9.22-39.012 17.248 10.997-52.545 52.256-93.636 104.284-104.896zm-82.604 109.804c13.441-6.174 32-11.53 54.745-14.967-.859 9.008-1.41 18.279-1.645 27.724-13.269-7.477-28.305-11.947-44.129-12.723-3.007-.147-5.999-.152-8.971-.034zm91.227 51.055c-6.066-10.858-13.991-20.311-23.27-28.045.004-13.73.704-27.139 2.042-39.919 12.779-1.334 26.627-2.087 41.439-2.087 14.276 0 28.206.73 41.444 2.132 1.339 12.803 2.038 26.237 2.038 39.993 0 11.478-.496 22.783-1.457 33.773-10.615-6.816-23.232-10.774-36.756-10.774-8.741-.001-17.42 1.689-25.48 4.927zm81.57 24.536c27.248-4.397 54.607-12.489 71.807-24.513-5.155 24.907-17.213 47.772-35.238 66.431-7.482-3.983-15.782-6.625-24.585-7.574-.814-12.703-5.136-24.462-11.984-34.344zm-286.583 247.529h-27.562v-27.562h27.562zm175.841 0h-27.562v-27.562h27.562zm162.587 0h-27.561v-27.562h27.561z"/></g></svg>